<?xml version="1.0" standalone="no"?>
<!DOCTYPE svg PUBLIC "-//W3C//DTD SVG 20010904//EN"
 "http://www.w3.org/TR/2001/REC-SVG-20010904/DTD/svg10.dtd">
<svg version="1.0" xmlns="http://www.w3.org/2000/svg"
 width="436.690589pt" height="91.882939pt" viewBox="0 0 436.690589 91.882939"
 preserveAspectRatio="xMidYMid meet">
<metadata>
Created by potrace 1.12, written by Peter Selinger 2001-2015
</metadata>
<g transform="translate(-3.809411,98.000000) scale(0.100000,-0.100000)"
fill="#000000" stroke="none">
<path d="M620 620 l0 -360 75 0 75 0 0 183 c0 207 3 217 73 217 64 0 67 -9 67
-216 l0 -184 76 0 75 0 -3 203 c-3 181 -5 206 -24 242 -30 58 -90 88 -169 82
-33 -2 -68 -7 -77 -12 -17 -7 -18 2 -18 99 l0 106 -75 0 -75 0 0 -360z"/>
<path d="M1360 619 l0 -360 83 0 c45 1 110 -2 145 -5 106 -11 176 29 219 125
12 26 17 65 17 141 0 90 -3 112 -23 153 -13 26 -36 58 -52 72 -49 41 -136 56
-207 36 l-32 -10 0 105 0 104 -75 0 -75 0 0 -361z m282 27 c26 -19 38 -60 38
-125 0 -105 -24 -141 -94 -141 -63 0 -76 24 -76 140 0 89 2 101 22 120 25 23
84 27 110 6z"/>
<path d="M1880 619 l0 -360 83 0 c45 1 114 -2 152 -5 92 -7 146 18 190 90 29
48 30 53 30 175 0 119 -1 128 -27 173 -15 25 -44 56 -63 68 -42 26 -139 37
-184 22 l-31 -11 0 105 0 104 -75 0 -75 0 0 -361z m289 18 c40 -44 41 -192 0
-236 -25 -26 -94 -29 -121 -4 -15 14 -18 32 -18 124 0 100 2 109 22 123 34 24
90 20 117 -7z"/>
<path d="M222 945 c-119 -37 -180 -131 -153 -233 22 -78 86 -127 232 -177 72
-24 119 -59 119 -89 0 -7 -9 -25 -21 -40 -18 -23 -27 -26 -84 -26 -74 0 -103
18 -114 70 l-7 35 -78 3 -78 3 7 -43 c9 -54 38 -106 78 -138 65 -52 197 -75
292 -49 122 33 185 148 140 257 -30 71 -73 101 -224 156 -97 36 -128 66 -112
107 12 33 60 53 112 46 50 -7 75 -28 83 -73 l7 -34 76 0 76 0 -7 42 c-15 93
-71 154 -169 183 -61 18 -118 18 -175 0z"/>
<path d="M1150 938 c-64 -69 38 -167 113 -108 34 27 37 80 7 110 -28 28 -93
27 -120 -2z"/>
<path d="M3045 941 c-3 -6 -21 -52 -39 -103 -19 -51 -57 -151 -84 -223 -57
-147 -132 -347 -132 -352 0 -2 35 -3 79 -3 l78 0 25 72 24 73 115 3 114 3 25
-73 25 -73 78 -3 77 -3 0 -94 0 -95 75 0 75 0 0 100 c0 96 1 100 19 90 11 -5
46 -10 79 -10 118 0 191 70 212 203 21 132 -20 260 -97 308 -30 19 -51 23
-103 23 -36 -1 -109 -2 -162 -2 l-98 -1 -2 -247 -3 -246 -79 208 c-43 115 -99
264 -124 332 l-45 122 -63 0 c-35 0 -65 -4 -69 -9z m72 -399 c-32 -2 -62 -1
-65 2 -4 5 8 44 54 176 3 8 20 -28 38 -80 l33 -95 -60 -3z m590 103 c57 -40
56 -207 -1 -254 -25 -21 -81 -19 -106 4 -18 16 -20 30 -20 123 0 84 3 109 17
124 20 22 80 24 110 3z"/>
<path d="M4147 783 c-4 -3 -50 -5 -102 -4 l-95 2 0 -356 0 -355 75 0 75 0 0
94 0 94 59 -5 c82 -8 125 3 167 39 65 57 79 98 79 228 0 99 -3 121 -22 155
-28 53 -72 93 -114 105 -39 11 -112 13 -122 3z m68 -129 c58 -23 69 -204 16
-257 -24 -24 -90 -28 -116 -7 -23 19 -22 226 2 252 16 18 66 24 98 12z"/>
<path d="M1140 520 l0 -260 75 0 75 0 0 260 0 260 -75 0 -75 0 0 -260z"/>
<path d="M2343 763 c3 -10 15 -45 27 -78 12 -33 49 -136 82 -230 54 -156 58
-173 48 -207 -12 -43 -34 -58 -84 -58 l-36 0 0 -59 0 -60 45 -7 c54 -8 81 -2
125 28 40 28 59 62 104 193 19 55 64 185 100 289 36 104 66 193 66 198 0 5
-34 8 -76 6 l-77 -3 -19 -65 c-11 -36 -30 -99 -42 -139 l-23 -75 -22 75 c-13
40 -32 104 -44 142 l-21 67 -79 0 c-71 0 -79 -2 -74 -17z"/>
</g>
</svg>
